<svg xmlns="http://www.w3.org/2000/svg" viewBox="0 0 512 512">
  <!-- Background -->
  <rect width="512" height="512" rx="100" fill="#0e0e0f"/>
  <!-- Grid lines subtle -->
  <line x1="0" y1="170" x2="512" y2="170" stroke="#6aaa6415" stroke-width="1"/>
  <line x1="0" y1="340" x2="512" y2="340" stroke="#6aaa6415" stroke-width="1"/>
  <line x1="170" y1="0" x2="170" y2="512" stroke="#6aaa6415" stroke-width="1"/>
  <line x1="340" y1="0" x2="340" y2="512" stroke="#6aaa6415" stroke-width="1"/>

  <!-- Top row tiles: W A L L S -->
  <!-- W - green -->
  <rect x="44" y="64" width="76" height="76" rx="10" fill="#6aaa64"/>
  <!-- A - yellow -->
  <rect x="130" y="64" width="76" height="76" rx="10" fill="#c9b458"/>
  <!-- L - gray -->
  <rect x="216" y="64" width="76" height="76" rx="10" fill="#787c7e"/>
  <!-- L - green -->
  <rect x="302" y="64" width="76" height="76" rx="10" fill="#6aaa64"/>
  <!-- S - yellow -->
  <rect x="388" y="64" width="76" height="76" rx="10" fill="#c9b458"/>

  <!-- Letters top row -->
  <text x="82" y="122" font-family="Arial Black, sans-serif" font-weight="900" font-size="52" fill="white" text-anchor="middle">W</text>
  <text x="168" y="122" font-family="Arial Black, sans-serif" font-weight="900" font-size="52" fill="white" text-anchor="middle">A</text>
  <text x="254" y="122" font-family="Arial Black, sans-serif" font-weight="900" font-size="52" fill="white" text-anchor="middle">L</text>
  <text x="340" y="122" font-family="Arial Black, sans-serif" font-weight="900" font-size="52" fill="white" text-anchor="middle">L</text>
  <text x="426" y="122" font-family="Arial Black, sans-serif" font-weight="900" font-size="52" fill="white" text-anchor="middle">S</text>

  <!-- Bottom row tiles: W O R D L E -->
  <!-- W - gray -->
  <rect x="13" y="368" width="76" height="76" rx="10" fill="#787c7e"/>
  <!-- O - yellow -->
  <rect x="99" y="368" width="76" height="76" rx="10" fill="#c9b458"/>
  <!-- R - gray -->
  <rect x="185" y="368" width="76" height="76" rx="10" fill="#787c7e"/>
  <!-- D - green -->
  <rect x="271" y="368" width="76" height="76" rx="10" fill="#6aaa64"/>
  <!-- L - yellow -->
  <rect x="357" y="368" width="76" height="76" rx="10" fill="#c9b458"/>
  <!-- E - gray -->
  <rect x="423" y="368" width="76" height="76" rx="10" fill="#787c7e"/>

  <!-- Letters bottom row -->
  <text x="51" y="426" font-family="Arial Black, sans-serif" font-weight="900" font-size="52" fill="white" text-anchor="middle">W</text>
  <text x="137" y="426" font-family="Arial Black, sans-serif" font-weight="900" font-size="52" fill="white" text-anchor="middle">O</text>
  <text x="223" y="426" font-family="Arial Black, sans-serif" font-weight="900" font-size="52" fill="white" text-anchor="middle">R</text>
  <text x="309" y="426" font-family="Arial Black, sans-serif" font-weight="900" font-size="52" fill="white" text-anchor="middle">D</text>
  <text x="395" y="426" font-family="Arial Black, sans-serif" font-weight="900" font-size="52" fill="white" text-anchor="middle">L</text>
  <text x="461" y="426" font-family="Arial Black, sans-serif" font-weight="900" font-size="52" fill="white" text-anchor="middle">E</text>

  <!-- Middle "Walls Wordle" text -->
  <text x="256" y="258" font-family="Arial Black, sans-serif" font-weight="900" font-size="38" fill="#f0f0f0" text-anchor="middle" letter-spacing="6">WALLS</text>
  <text x="256" y="310" font-family="Arial Black, sans-serif" font-weight="900" font-size="28" fill="#6aaa64" text-anchor="middle" letter-spacing="8">WORDLE</text>
</svg>
